<svg xmlns="http://www.w3.org/2000/svg" viewBox="0 0 1365.14 980"><title>Ресурс 1</title><g id="Слой_2" data-name="Слой 2"><g id="Слой_1-2" data-name="Слой 1"><path d="M596.29,9.6A412.06,412.06,0,0,1,684.09,0C931.47,0,1132,219.4,1132,490S931.47,980,684.09,980a410.22,410.22,0,0,1-87.8-9.6C801.67,925.8,956.41,727.7,956.41,490S801.67,54.2,596.29,9.6Z"/><path d="M1189.53,490c0,237.7-154.74,435.8-360.12,480.4a412.15,412.15,0,0,0,87.81,9.6c247.37,0,447.92-219.4,447.92-490S1164.59,0,917.22,0a404,404,0,0,0-87.81,9.6C1034.79,54.2,1189.53,252.3,1189.53,490Z"/><ellipse cx="447.92" cy="490" rx="447.92" ry="490"/></g></g></svg>