<svg id="Layer_1" width="50px" height="50px" enable-background="new 0 0 512 512" viewBox="0 0 512 512" xmlns="http://www.w3.org/2000/svg"><g><path d="m501.333 106.667c5.888 0 10.667-4.779 10.667-10.667v-42.667c0-5.888-4.779-10.667-10.667-10.667h-53.333v-32c0-5.887-4.779-10.666-10.667-10.666h-362.666c-5.888 0-10.667 4.779-10.667 10.667v32h-53.333c-5.888 0-10.667 4.778-10.667 10.666v42.667c0 5.888 4.779 10.667 10.667 10.667h10.667v341.333h-10.667c-5.888 0-10.667 4.779-10.667 10.667v42.667c0 5.887 4.779 10.666 10.667 10.666h490.667c5.888 0 10.667-4.779 10.667-10.667v-42.667c0-5.888-4.779-10.667-10.667-10.667h-10.667v-341.332zm-352 309.333c0 5.888-4.779 10.667-10.667 10.667h-64c-5.887 0-10.666-4.779-10.666-10.667v-64c0-5.888 4.779-10.667 10.667-10.667h64c5.888 0 10.667 4.779 10.667 10.667v64zm0-106.667c0 5.888-4.779 10.667-10.667 10.667h-64c-5.887 0-10.666-4.779-10.666-10.667v-64c0-5.888 4.779-10.667 10.667-10.667h64c5.888 0 10.667 4.779 10.667 10.667v64zm0-106.666c0 5.888-4.779 10.667-10.667 10.667h-64c-5.888 0-10.667-4.779-10.667-10.667v-64c.001-5.888 4.78-10.667 10.668-10.667h64c5.888 0 10.667 4.779 10.667 10.667v64zm149.334 245.333h-85.333v-96c0-5.888 4.779-10.667 10.667-10.667h64c5.888 0 10.667 4.779 10.667 10.667v96zm0-138.667c0 5.888-4.779 10.667-10.667 10.667h-64c-5.888 0-10.667-4.779-10.667-10.667v-64c0-5.888 4.779-10.667 10.667-10.667h64c5.888 0 10.667 4.779 10.667 10.667zm0-106.666c0 5.888-4.779 10.667-10.667 10.667h-64c-5.888 0-10.667-4.779-10.667-10.667v-64c0-5.888 4.779-10.667 10.667-10.667h64c5.888 0 10.667 4.779 10.667 10.667zm149.333 213.333c0 5.888-4.779 10.667-10.667 10.667h-64c-5.888 0-10.667-4.779-10.667-10.667v-64c0-5.888 4.779-10.667 10.667-10.667h64c5.888 0 10.667 4.779 10.667 10.667zm0-106.667c0 5.888-4.779 10.667-10.667 10.667h-64c-5.888 0-10.667-4.779-10.667-10.667v-64c0-5.888 4.779-10.667 10.667-10.667h64c5.888 0 10.667 4.779 10.667 10.667zm0-106.666c0 5.888-4.779 10.667-10.667 10.667h-64c-5.888 0-10.667-4.779-10.667-10.667v-64c0-5.888 4.779-10.667 10.667-10.667h64c5.888 0 10.667 4.779 10.667 10.667z"/></g></svg>