<?xml version="1.0" encoding="utf-8"?>
<!-- Generator: Adobe Illustrator 24.3.0, SVG Export Plug-In . SVG Version: 6.00 Build 0)  -->
<svg version="1.1" id="Слой_1" xmlns="http://www.w3.org/2000/svg" xmlns:xlink="http://www.w3.org/1999/xlink" x="0px" y="0px"
	 viewBox="0 0 1104 517.5" style="enable-background:new 0 0 1104 517.5;" xml:space="preserve">
<path d="M217.4,249.6c33.9,0,63.2-12.2,87.2-36.1c24-24,36.1-53.3,36.1-87.2s-12.2-63.2-36.1-87.2c-24-24-53.3-36.1-87.2-36.1
	s-63.2,12.2-87.2,36.1S94,92.4,94,126.3s12.2,63.2,36.1,87.2C154.1,237.5,183.5,249.6,217.4,249.6z"/>
<path d="M315.1,431c-0.7-10,0.2-26.5,1.3-38.4c2.6-18,3.2-29.1,7-43.7c5-19.2,7.4-25.8,16.5-44.6c12.1-22.7,29.4-40.8,29.4-40.8
	s-3.4-4.5-10.4-6.2c-11.2-4.4-23.7-6.7-37-6.7c-5.2,0-10.3,2.1-20,8.5c-6,3.9-13,8.4-20.9,13.5c-6.7,4.3-15.8,8.3-27,11.9
	c-10.9,3.5-22.1,5.3-33,5.3c-11,0-22.1-1.8-33-5.3c-11.2-3.6-20.3-7.6-27-11.9c-7.8-5-14.8-9.5-20.9-13.5c-9.8-6.4-14.8-8.5-20-8.5
	c-13.3,0-25.8,2.3-37,6.7c-11.3,4.5-21,10.6-29,18.2c-7.6,7.3-14.4,16.1-20.2,26.3c-5.6,9.8-10.1,20-13.4,30.3
	c-3.2,10-5.9,20.9-8,32.5C10.4,376.1,9,387,8.4,397c-0.7,9.8-1,20-1,30.2c0,26.7,8.5,48.4,25.2,64.3c16.5,15.7,38.4,23.7,65.1,23.7
	l272.5-0.2c0,0-11.3-5.5-22.4-13.4c-15.6-12.3-18.6-21.5-25.8-36.7C317.9,452.4,315.8,440.8,315.1,431z"/>
<path d="M548.4,249.6c33.9,0,63.2-12.2,87.2-36.1c24-24,36.1-53.3,36.1-87.2s-12.2-63.2-36.1-87.2c-24-24-53.3-36.1-87.2-36.1
	s-63.2,12.2-87.2,36.1S425,92.4,425,126.3s12.2,63.2,36.1,87.2C485.1,237.5,514.5,249.6,548.4,249.6z"/>
<path d="M646.1,431c-0.7-10,0.2-26.5,1.3-38.4c2.6-18,3.2-29.1,7-43.7c5-19.2,7.4-25.8,16.5-44.6c12.1-22.7,29.4-40.8,29.4-40.8
	s-3.4-4.5-10.4-6.2c-11.2-4.4-23.7-6.7-37-6.7c-5.2,0-10.3,2.1-20,8.5c-6,3.9-13,8.4-20.9,13.5c-6.7,4.3-15.8,8.3-27,11.9
	c-10.9,3.5-22.1,5.3-33,5.3s-22.1-1.8-33-5.3c-11.2-3.6-20.3-7.6-27-11.9c-7.8-5-14.8-9.5-20.9-13.5c-9.8-6.4-14.8-8.5-20-8.5
	c-13.3,0-25.8,2.3-37,6.7c-11.3,4.5-21,10.6-29,18.2c-7.6,7.3-14.4,16.1-20.2,26.3c-5.6,9.8-10.1,20-13.4,30.3
	c-3.2,10-5.9,20.9-8,32.5c-2.1,11.5-3.5,22.4-4.1,32.4c-0.7,9.8-1,20-1,30.2c0,26.7,8.5,48.4,25.3,64.3
	c16.5,15.7,38.4,23.7,65.1,23.7l272.5-0.2c0,0-11.3-5.5-22.4-13.4c-15.6-12.3-18.6-21.5-25.8-36.7
	C648.9,452.4,646.8,440.8,646.1,431z"/>
<path d="M881.4,249.6c33.9,0,63.2-12.2,87.2-36.1c24-24,36.1-53.3,36.1-87.2s-12.2-63.2-36.1-87.2c-24-24-53.3-36.1-87.2-36.1
	s-63.2,12.2-87.2,36.1S758,92.4,758,126.3s12.2,63.2,36.1,87.2C818.1,237.5,847.5,249.6,881.4,249.6z"/>
<path d="M1093.9,396.7c-0.7-10-2.1-20.9-4.1-32.4c-2.1-11.6-4.8-22.5-8-32.5c-3.3-10.3-7.8-20.6-13.4-30.3
	c-5.8-10.2-12.6-19-20.2-26.3c-8-7.6-17.7-13.7-29-18.2c-11.2-4.4-23.7-6.7-37-6.7c-5.2,0-10.3,2.1-20,8.5c-6,3.9-13,8.4-20.9,13.5
	c-6.7,4.3-15.8,8.3-27,11.9c-10.9,3.5-22.1,5.3-33,5.3s-22.1-1.8-33-5.3c-11.2-3.6-20.3-7.6-27-11.9c-7.8-5-14.8-9.5-20.9-13.5
	c-9.8-6.4-14.8-8.5-20-8.5c-13.3,0-25.8,2.3-37,6.7c-11.3,4.5-21,10.6-29,18.2c-7.6,7.3-14.4,16.1-20.2,26.3
	c-5.6,9.8-10.1,20-13.4,30.3c-3.2,10-5.9,20.9-8,32.5c-2.1,11.5-3.5,22.4-4.1,32.4c-0.7,9.8-1,20-1,30.2c0,26.7,8.5,48.4,25.3,64.3
	c18.4,16.1,42,25.3,65.1,23.7h246.5c26.6,0,48.5-8,65.1-23.7c16.8-15.9,25.3-37.6,25.3-64.3C1094.9,416.6,1094.6,406.5,1093.9,396.7
	z"/>
</svg>
