<svg xmlns="http://www.w3.org/2000/svg"
 xmlns:xlink="http://www.w3.org/1999/xlink"
 width="18px" height="18px"  viewBox="0 0 18 18">
<path fill-rule="evenodd"  fill="#ffffff"
 d="M7.536743,10.374939 C7.536743,10.374939 7.536743,16.454468 7.536743,16.454468 C7.536743,16.454468 10.834656,16.454468 10.834656,16.454468 C10.834656,16.454468 10.834656,10.374939 10.834656,10.374939 C10.834656,10.374939 16.858398,10.374939 16.858398,10.374939 C16.858398,10.374939 16.858398,7.1643677 16.858398,7.1643677 C16.858398,7.1643677 10.834656,7.1643677 10.834656,7.1643677 C10.834656,7.1643677 10.834656,1.0848999 10.834656,1.0848999 C10.834656,1.0848999 7.536743,1.0848999 7.536743,1.0848999 C7.536743,1.0848999 7.536743,7.1643677 7.536743,7.1643677 C7.536743,7.1643677 1.5130005,7.1643677 1.5130005,7.1643677 C1.5130005,7.1643677 1.5130005,10.374939 1.5130005,10.374939 C1.5130005,10.374939 7.536743,10.374939 7.536743,10.374939 Z"/>
</svg>